<svg width="23" height="14" viewBox="0 0 23 14" fill="none" xmlns="http://www.w3.org/2000/svg">
<path d="M16.8666 1.55556V12.4444C16.8666 12.857 16.705 13.2527 16.4175 13.5444C16.1299 13.8361 15.7399 14 15.3333 14H1.53333C1.12666 14 0.736655 13.8361 0.449101 13.5444C0.161546 13.2527 0 12.857 0 12.4444V1.55556C0 1.143 0.161546 0.747335 0.449101 0.455612C0.736655 0.163888 1.12666 0 1.53333 0H15.3333C15.7399 0 16.1299 0.163888 16.4175 0.455612C16.705 0.747335 16.8666 1.143 16.8666 1.55556ZM22.4249 1.57986C22.3167 1.55301 22.2042 1.5497 22.0947 1.57014C21.9852 1.59058 21.8812 1.63432 21.7895 1.69847L18.5705 3.87528C18.518 3.91082 18.4749 3.95897 18.4452 4.01545C18.4154 4.07193 18.3999 4.13499 18.3999 4.19903V9.80097C18.3999 9.86501 18.4154 9.92807 18.4452 9.98455C18.4749 10.041 18.518 10.0892 18.5705 10.1247L21.8077 12.3142C21.9289 12.3962 22.0706 12.4415 22.2162 12.4447C22.3618 12.448 22.5053 12.4091 22.63 12.3326C22.7453 12.2583 22.8398 12.1551 22.9046 12.0331C22.9694 11.911 23.0022 11.7742 22.9999 11.6356V2.33333C23 2.16084 22.9435 1.9932 22.8394 1.85681C22.7354 1.72041 22.5895 1.62299 22.4249 1.57986Z" fill="white"/>
</svg>
