<svg width="23" height="24" viewBox="0 0 23 24" fill="none" xmlns="http://www.w3.org/2000/svg">
<path d="M20.125 12.0001C20.1278 13.7869 19.6186 15.5337 18.6626 17.0161C17.8742 18.2431 16.8083 19.2484 15.559 19.9433C14.3098 20.6382 12.9157 21.0011 11.5 21.0001C10.0843 21.0011 8.69025 20.6382 7.44099 19.9433C6.19172 19.2484 5.12579 18.2431 4.33742 17.0161C3.58678 15.8485 3.10874 14.5137 2.94161 13.1186C2.77448 11.7234 2.92291 10.3069 3.37501 8.98239C3.8271 7.65793 4.57029 6.4624 5.54498 5.49167C6.51968 4.52093 7.69877 3.80198 8.98774 3.39245C10.2767 2.98292 11.6397 2.89421 12.9674 3.13342C14.2952 3.37263 15.5508 3.93311 16.6335 4.76993C17.7163 5.60675 18.5961 6.69664 19.2024 7.95221C19.8087 9.20779 20.1247 10.5941 20.125 12.0001Z" stroke="black" stroke-width="1.5"/>
<path d="M12.6979 9C12.6979 9.69 12.1613 10.25 11.5 10.25V11.75C12.199 11.75 12.8693 11.4603 13.3635 10.9445C13.8578 10.4288 14.1354 9.72935 14.1354 9H12.6979ZM11.5 10.25C10.8388 10.25 10.3021 9.69 10.3021 9H8.8646C8.8646 9.72935 9.14226 10.4288 9.63649 10.9445C10.1307 11.4603 10.8011 11.75 11.5 11.75V10.25ZM10.3021 9C10.3021 8.31 10.8388 7.75 11.5 7.75V6.25C10.8011 6.25 10.1307 6.53973 9.63649 7.05546C9.14226 7.57118 8.8646 8.27065 8.8646 9H10.3021ZM11.5 7.75C12.1613 7.75 12.6979 8.31 12.6979 9H14.1354C14.1354 8.27065 13.8578 7.57118 13.3635 7.05546C12.8693 6.53973 12.199 6.25 11.5 6.25V7.75ZM4.95076 17.856L4.26172 17.642L4.1496 18.034L4.40547 18.344L4.95076 17.856ZM18.0493 17.856L18.5955 18.345L18.8504 18.035L18.7383 17.642L18.0493 17.856ZM8.62501 15.75H14.375V14.25H8.62501V15.75ZM8.62501 14.25C7.64473 14.25 6.69063 14.5802 5.90453 15.1913C5.11842 15.8024 4.54227 16.6619 4.26172 17.642L5.63981 18.07C5.83198 17.3996 6.22624 16.8118 6.76403 16.3939C7.30182 15.9759 7.95446 15.7501 8.62501 15.75V14.25ZM11.5 20.25C10.359 20.2514 9.23136 19.9944 8.1948 19.4968C7.15824 18.9993 6.23748 18.273 5.49606 17.368L4.40547 18.344C5.28183 19.413 6.36991 20.272 7.5947 20.8598C8.81949 21.4476 10.1519 21.7513 11.5 21.75V20.25ZM14.375 15.75C15.7838 15.75 16.9769 16.728 17.3602 18.07L18.7383 17.642C18.4578 16.6619 17.8816 15.8024 17.0955 15.1913C16.3094 14.5802 15.3553 14.25 14.375 14.25V15.75ZM17.504 17.368C16.7625 18.273 15.8418 18.9993 14.8052 19.4968C13.7687 19.9944 12.641 20.2514 11.5 20.25V21.75C12.8482 21.7513 14.1805 21.4476 15.4053 20.8598C16.6301 20.272 17.7192 19.414 18.5955 18.345L17.504 17.368Z" fill="black"/>
</svg>
